<svg width="215" height="54" viewBox="0 0 215 54" fill="none" xmlns="http://www.w3.org/2000/svg">
<g id="logo 1" clip-path="url(#clip0_286_17875)">
<g id="Group">
<path id="Vector" fill-rule="evenodd" clip-rule="evenodd" d="M27.6228 10.474C32.307 10.474 36.5482 12.3355 39.6096 15.3461L33.3728 21.4068L28.2368 16.2681L16.1885 27.1485L19.8728 27.1398L19.9385 36.386L25.6008 36.4646V32.6761C25.6008 31.8415 26.4429 32.0207 28.2324 32.0425H28.2456H28.2587C30.0482 32.0163 30.8903 31.8415 30.8903 32.6761V36.4646L36.4429 36.386L39.0614 39.1738C36.0526 41.8742 32.0394 43.5259 27.6315 43.5259C18.2938 43.5259 10.7236 36.1281 10.7236 27C10.7236 17.8718 18.285 10.474 27.6228 10.474ZM19.8377 21.752L22.8333 19.2876L22.8684 17.9548H19.8333V21.752H19.8377Z" fill="#2B2C86"/>
<path id="Vector_2" fill-rule="evenodd" clip-rule="evenodd" d="M27.6228 0C35.2763 0 42.2018 3.04127 47.2061 7.95711L43.4912 11.5708C39.4386 7.58569 33.8246 5.12122 27.6228 5.12122C15.2588 5.12122 5.23684 14.9179 5.23684 27C5.23684 39.0821 15.2588 48.8788 27.6228 48.8788C33.4605 48.8788 38.7719 46.694 42.7588 43.1196L46.3026 46.8906C41.386 51.3039 34.8289 54 27.6272 54C12.3684 54 0 41.9136 0 27C0 12.0864 12.3684 0 27.6228 0Z" fill="#E52B0E"/>
</g>
<g id="Group_2">
<path id="Vector_3" fill-rule="evenodd" clip-rule="evenodd" d="M57.211 30.5525C54.8645 30.5525 52.8689 29.7485 51.2198 28.1361C49.5707 26.5237 48.7461 24.5486 48.7461 22.2065C48.7461 19.8644 49.5707 17.8849 51.2198 16.255C52.8689 14.6295 54.8645 13.8124 57.211 13.8124C57.654 13.8124 58.0663 13.8343 58.4478 13.8823C58.8294 13.9304 59.2066 14.0134 59.5882 14.1401L59.8952 13.6988L62.5356 15.2107L60.7505 18.6059C59.5926 17.5659 58.4128 17.0503 57.2066 17.0503C55.8733 17.0503 54.7505 17.5484 53.8294 18.536C52.9084 19.5279 52.4522 20.7514 52.4522 22.2109C52.4522 23.6703 52.9128 24.8457 53.8294 25.8377C54.7505 26.8296 55.8733 27.3233 57.2066 27.3233C58.6189 27.3233 59.7593 26.8296 60.6321 25.8377L62.0356 29.1149C60.6408 30.0762 59.0312 30.5569 57.2066 30.5569L57.211 30.5525ZM66.1759 30.1112V17.5135H62.8952L64.0136 14.2843H70.3645L70.768 13.5633H73.9785L72.5268 17.5135H69.6715V30.1112H66.1759ZM75.2592 30.1112H78.7549V25.322H80.7768C82.2022 25.322 83.4084 24.7583 84.3908 23.6266C85.3733 22.4949 85.8645 21.1228 85.8645 19.5104C85.8645 18.0684 85.3514 16.8362 84.3207 15.8137C83.29 14.7912 82.0838 14.28 80.7066 14.28H74.9259L73.7373 17.5091H75.2592V30.1068V30.1112ZM78.7549 17.5135H79.825C80.4917 17.5135 81.0443 17.7363 81.4917 18.1864C81.9347 18.6365 82.1584 19.1871 82.1584 19.8381C82.1584 20.4892 81.9303 21.0092 81.4698 21.4418C81.0093 21.8744 80.4566 22.0929 79.8031 22.0929H78.7549V17.5135ZM95.404 30.5525C93.0575 30.5525 91.0619 29.7485 89.4128 28.1361C87.7636 26.5237 86.9391 24.5486 86.9391 22.2065C86.9391 19.8644 87.7636 17.9199 89.4128 16.2769C91.0619 14.6339 93.0575 13.8124 95.404 13.8124C97.7505 13.8124 99.7461 14.6252 101.395 16.255C103.044 17.8849 103.869 19.8644 103.869 22.2065C103.869 24.5486 103.044 26.4844 101.395 28.1099C99.7461 29.7354 97.7505 30.5525 95.404 30.5525ZM95.404 17.0459C94.0882 17.0459 92.9654 17.5441 92.04 18.5447C91.1145 19.5454 90.6496 20.7645 90.6496 22.2065C90.6496 23.6485 91.1101 24.8414 92.0312 25.8333C92.9522 26.8252 94.075 27.319 95.4084 27.319C96.7417 27.319 97.8645 26.8252 98.7856 25.8333C99.7066 24.8414 100.167 23.631 100.167 22.2065C100.167 20.782 99.7022 19.5454 98.7768 18.5447C97.8514 17.5441 96.7285 17.0459 95.4128 17.0459H95.404ZM114.145 14.28H117.641V30.1112H114.145V21.4636L109.483 30.1112H105.987V17.5135H104.465L105.654 14.2843H109.483V23.1416L114.145 14.2843V14.28ZM107.821 11.562L109.106 10.2599C109.439 10.6488 109.838 10.9372 110.307 11.1338C110.777 11.3261 111.255 11.4222 111.746 11.4222C112.807 11.4222 113.68 11.0333 114.36 10.2599L115.737 11.6101L115.641 11.7718C114.549 12.9341 113.246 13.5153 111.742 13.5153C110.965 13.5153 110.242 13.358 109.579 13.039C108.913 12.72 108.325 12.2306 107.821 11.562ZM128.132 30.5525C125.786 30.5525 123.79 29.7485 122.141 28.1361C120.492 26.5237 119.667 24.5486 119.667 22.2065C119.667 19.8644 120.492 17.9199 122.141 16.2769C123.79 14.6339 125.786 13.8124 128.132 13.8124C130.479 13.8124 132.474 14.6252 134.123 16.255C135.772 17.8805 136.597 19.8644 136.597 22.2065C136.597 24.5486 135.772 26.4844 134.123 28.1099C132.474 29.7354 130.479 30.5525 128.132 30.5525ZM128.132 17.0459C126.816 17.0459 125.693 17.5441 124.768 18.5447C123.843 19.5454 123.378 20.7645 123.378 22.2065C123.378 23.6485 123.838 24.8414 124.759 25.8333C125.68 26.8252 126.803 27.319 128.136 27.319C129.47 27.319 130.593 26.8252 131.514 25.8333C132.435 24.8414 132.891 23.631 132.891 22.2065C132.891 20.782 132.426 19.5454 131.5 18.5447C130.575 17.5441 129.452 17.0459 128.136 17.0459H128.132ZM138.382 14.28H149.987V30.1112H146.492V17.5135H142.211V30.1112H138.715V17.5135H137.193L138.382 14.2843V14.28ZM154.698 30.1112V17.5135H151.417L152.536 14.2843H158.886L159.29 13.5633H162.5L161.049 17.5135H158.193V30.1112H154.698ZM165.544 30.1112H169.04V17.5135H171.895L173.347 13.5633H170.136L169.733 14.2843H163.382L162.264 17.5135H165.544V30.1112ZM182.167 30.5525C179.821 30.5525 177.825 29.7485 176.176 28.1361C174.527 26.5237 173.702 24.5486 173.702 22.2065C173.702 19.8644 174.527 17.9199 176.176 16.2769C177.825 14.6339 179.821 13.8124 182.167 13.8124C184.514 13.8124 186.509 14.6252 188.158 16.255C189.807 17.8849 190.632 19.8644 190.632 22.2065C190.632 24.5486 189.807 26.4844 188.158 28.1099C186.509 29.7354 184.514 30.5525 182.167 30.5525ZM182.167 17.0459C180.851 17.0459 179.729 17.5441 178.803 18.5447C177.878 19.5454 177.413 20.7645 177.413 22.2065C177.413 23.6485 177.873 24.8414 178.79 25.8333C179.711 26.8252 180.834 27.319 182.167 27.319C183.5 27.319 184.623 26.8252 185.544 25.8333C186.465 24.8414 186.922 23.631 186.922 22.2065C186.922 20.782 186.457 19.5454 185.531 18.5447C184.606 17.5441 183.483 17.0459 182.167 17.0459ZM192.75 30.1112V17.5135H191.229L192.417 14.2843H198.198C199.575 14.2843 200.781 14.7956 201.812 15.8181C202.843 16.8406 203.356 18.0728 203.356 19.5148C203.356 21.1272 202.865 22.4992 201.882 23.631C200.9 24.7627 199.693 25.3264 198.268 25.3264H196.246V30.1155H192.75V30.1112ZM196.246 17.5135V22.0929H197.294C197.943 22.0929 198.5 21.8744 198.961 21.4418C199.422 21.0092 199.65 20.4717 199.65 19.8381C199.65 19.2045 199.426 18.6365 198.983 18.1864C198.54 17.7363 197.983 17.5135 197.316 17.5135H196.246ZM205.356 30.1112V17.5135H203.834L205.022 14.2843H211.395L211.825 13.5633H215.014L213.562 17.5135H208.851V30.1112H205.356Z" fill="#E52B0E"/>
<path id="Vector_4" fill-rule="evenodd" clip-rule="evenodd" d="M57.8428 37.9228V43.0103H60.5262C61.5081 43.0103 62.1914 42.4089 62.1914 41.509C62.1914 40.8497 61.7977 40.4176 61.2004 40.275C61.6439 40.1057 61.9561 39.6959 61.9561 39.2014C61.9561 38.444 61.3859 37.9228 60.2456 37.9228H57.8428ZM58.7433 38.6445H60.0284C60.5533 38.6445 61.033 38.7069 61.033 39.3439C61.033 39.8562 60.6845 40.0433 59.9967 40.0433H58.7387V38.6445H58.7433ZM58.7433 40.6893H60.1099C60.7072 40.6893 61.2638 40.7873 61.2638 41.4912C61.2638 42.1416 60.7479 42.2842 60.1234 42.2842H58.7387V40.6893H58.7433ZM67.5672 41.0769H66.6441C66.5491 41.8253 66.1554 42.3777 65.3001 42.3777C64.1779 42.3777 63.748 41.4155 63.748 40.471C63.748 39.5266 64.2005 38.5688 65.3092 38.5688C65.9879 38.5688 66.4857 38.9341 66.6124 39.5488H67.531C67.3545 38.3683 66.3771 37.8114 65.3273 37.8114C63.7299 37.8114 62.8204 39.0276 62.8204 40.471C62.8204 42.0792 63.7978 43.1351 65.282 43.1351C66.5988 43.1351 67.4767 42.3154 67.5763 41.0769H67.5672ZM72.1828 37.9273H68.3908V43.0148H72.2281V42.2485H69.3048V40.7472H71.9746V40.0255H69.3048V38.6757H72.1828V37.9273ZM71.4226 36.72H70.6035V37.4907H71.4226V36.72ZM69.9519 36.72H69.1238V37.4907H69.9519V36.72ZM79.8166 44.28V42.2441H79.2238V37.9273H75.7938V38.7113C75.7938 40.1102 75.5042 41.5536 75.106 42.2396H74.5947V44.2755H75.4906V43.0103H78.9207V44.2755H79.8166V44.28ZM78.3007 42.2441H76.097C76.4228 41.607 76.6943 40.2705 76.6943 39.0098V38.7024H78.3007V42.2441ZM84.5725 43.0148V37.9273H81.1334L81.0294 40.8764C80.9841 42.1683 80.6945 42.3822 80.3189 42.3822C80.2465 42.3822 80.0655 42.3688 79.9569 42.3243V43.0103C80.0881 43.0549 80.3053 43.1039 80.5135 43.1039C81.2692 43.1039 81.8665 42.5381 81.9253 41.117L82.0204 38.6935H83.6494V43.0103H84.5725V43.0148ZM89.6316 43.0148V37.9273H87.2333C86.111 37.9273 85.4866 38.493 85.4866 39.335C85.4866 39.9765 85.6947 40.5512 86.6269 40.8274L85.0069 43.0148H86.1608L87.6541 40.9165H88.7039V43.0148H89.627H89.6316ZM88.7084 40.2349H87.3192C86.7265 40.2349 86.4188 39.9498 86.4188 39.4152C86.4188 38.8806 86.7084 38.6579 87.3373 38.6579H88.713V40.2349H88.7084ZM97.2971 41.0769H96.374C96.2789 41.8253 95.8853 42.3777 95.03 42.3777C93.9078 42.3777 93.4779 41.4155 93.4779 40.471C93.4779 39.5266 93.9304 38.5688 95.0391 38.5688C95.7178 38.5688 96.2156 38.9341 96.3423 39.5488H97.2609C97.0844 38.3683 96.107 37.8114 95.0572 37.8114C93.4598 37.8114 92.5503 39.0276 92.5503 40.471C92.5503 42.0792 93.5277 43.1351 95.0119 43.1351C96.3287 43.1351 97.2066 42.3154 97.3061 41.0769H97.2971ZM101.772 37.9273H97.4917V38.698H99.1705V43.0148H100.094V38.698H101.772V37.9273ZM102.392 37.9273V43.0148H103.315V41.0591H104.804C105.868 41.0591 106.515 40.4443 106.515 39.482C106.515 38.4173 105.768 37.9317 104.682 37.9317H102.397L102.392 37.9273ZM103.315 38.6712H104.519C105.103 38.6712 105.605 38.845 105.605 39.4998C105.605 40.1013 105.198 40.3374 104.601 40.3374H103.315V38.6712ZM109.578 37.807C107.967 37.807 107.035 38.9786 107.035 40.471C107.035 42.057 108.058 43.1351 109.565 43.1351C111.071 43.1351 112.094 42.057 112.094 40.471C112.094 38.8851 111.067 37.807 109.578 37.807ZM109.565 38.5554C110.542 38.5554 111.162 39.2994 111.162 40.4621C111.162 41.6248 110.542 42.3822 109.578 42.3822C108.614 42.3822 107.967 41.6382 107.967 40.4532C107.967 39.2682 108.596 38.5509 109.565 38.5509V38.5554ZM112.913 43.0148H113.986L116.248 39.1123V43.0148H117.171V37.9273H116.099L113.836 41.8298V37.9273H112.913V43.0148ZM122.049 37.9273H117.769V38.698H119.447V43.0148H120.371V38.698H122.049V37.9273ZM126.443 37.9273H122.651V43.0148H126.488V42.2485H123.565V40.7472H126.235V40.0255H123.565V38.6757H126.443V37.9273ZM131.434 43.0148V37.9273H127.995L127.891 40.8764C127.846 42.1683 127.556 42.3822 127.181 42.3822C127.108 42.3822 126.927 42.3688 126.819 42.3243V43.0103C126.95 43.0549 127.167 43.1039 127.375 43.1039C128.131 43.1039 128.728 42.5381 128.787 41.117L128.882 38.6935H130.511V43.0103H131.434V43.0148ZM136.656 41.4377C136.656 40.4354 136.014 39.8741 134.86 39.8741H133.453V37.9317H132.529V43.0192H134.86C136.005 43.0192 136.656 42.449 136.656 41.4422V41.4377ZM135.733 41.46C135.733 42.008 135.43 42.2886 134.824 42.2886H133.457V40.6047H134.81C135.389 40.6047 135.733 40.9254 135.733 41.46ZM141.969 41.0813H141.046C140.951 41.8298 140.557 42.3822 139.702 42.3822C138.58 42.3822 138.15 41.4199 138.15 40.4755C138.15 39.531 138.602 38.5732 139.711 38.5732C140.39 38.5732 140.887 38.9385 141.014 39.5533H141.933C141.756 38.3727 140.779 37.8159 139.729 37.8159C138.132 37.8159 137.222 39.0321 137.222 40.4755C137.222 42.0837 138.199 43.1395 139.684 43.1395C141 43.1395 141.878 42.3198 141.978 41.0813H141.969ZM146.444 37.9317H142.163V38.7024H143.842V43.0192H144.765V38.7024H146.444V37.9317ZM147.041 37.9317V43.0192H149.725C150.707 43.0192 151.39 42.4178 151.39 41.5179C151.39 40.8586 150.996 40.4265 150.399 40.2839C150.843 40.1146 151.155 39.7048 151.155 39.2103C151.155 38.4529 150.585 37.9317 149.444 37.9317H147.041ZM147.942 38.6534H149.227C149.752 38.6534 150.232 38.7158 150.232 39.3528C150.232 39.8651 149.883 40.0523 149.195 40.0523H147.937V38.6534H147.942ZM147.942 40.6982H149.309C149.906 40.6982 150.462 40.7962 150.462 41.5001C150.462 42.1505 149.947 42.2931 149.322 42.2931H147.937V40.6982H147.942ZM154.657 37.9317H153.675L151.643 43.0192H152.598L153.114 41.6694H155.2L155.702 43.0192H156.693L154.662 37.9317H154.657ZM154.951 40.9967H153.345L154.164 38.8583L154.947 40.9967H154.951ZM159.228 43.0192H160.3L162.563 39.1167V43.0192H163.486V37.9317H162.413L160.151 41.8342V37.9317H159.228V43.0192ZM166.653 37.9317V43.0192H167.576V41.0635H169.065C170.128 41.0635 170.776 40.4487 170.776 39.4865C170.776 38.4218 170.029 37.9362 168.943 37.9362H166.658L166.653 37.9317ZM167.576 38.6757H168.78C169.364 38.6757 169.866 38.8494 169.866 39.5043C169.866 40.1057 169.459 40.3418 168.861 40.3418H167.576V38.6757ZM175.355 37.9317H171.563V43.0192H175.4V42.253H172.477V40.7517H175.147V40.03H172.477V38.6801H175.355V37.9317ZM181.699 37.9317H180.414L178.993 41.91L177.522 37.9317H176.228V43.0192H177.102V39.0989L178.604 43.0192H179.36L180.826 39.0989V43.0192H181.708V37.9317H181.699ZM185.07 37.8114C183.459 37.8114 182.527 38.9831 182.527 40.4755C182.527 42.0614 183.55 43.1395 185.057 43.1395C186.564 43.1395 187.586 42.0614 187.586 40.4755C187.586 38.8895 186.559 37.8114 185.07 37.8114ZM185.057 38.5599C186.034 38.5599 186.654 39.3038 186.654 40.4666C186.654 41.6293 186.034 42.3866 185.07 42.3866C184.107 42.3866 183.459 41.6427 183.459 40.4576C183.459 39.2726 184.088 38.5554 185.057 38.5554V38.5599ZM192.668 37.9317H191.745V39.9542H189.333V37.9317H188.41V43.0192H189.333V40.7339H191.745V43.0192H192.668V37.9317ZM197.542 37.9317H193.261V38.7024H194.94V43.0192H195.863V38.7024H197.542V37.9317ZM199.872 37.9317L201.904 43.0192H200.913L200.41 41.6694H198.324L197.808 43.0192H196.854L198.885 37.9317H199.867H199.872ZM200.166 40.9967L199.383 38.8583L198.564 40.9967H200.171H200.166Z" fill="#2B2C86"/>
</g>
</g>
<defs>
<clipPath id="clip0_286_17875">
<rect width="215" height="54" fill="white"/>
</clipPath>
</defs>
</svg>
