<svg width="34" height="26" viewBox="0 0 34 26" fill="none" xmlns="http://www.w3.org/2000/svg">
<g id="Frame 8">
<g id="Group 3">
<rect id="Rectangle 13" x="6.8" y="3.3" width="20.4" height="20.4" rx="7.2" stroke="#16191E" stroke-width="1.6"/>
<path id="Vector" d="M14.1089 13.9468C13.3421 13.18 12.9113 12.14 12.9113 11.0556C12.9113 9.97112 13.3421 8.93109 14.1089 8.16428C14.8758 7.39746 15.9158 6.96667 17.0002 6.96667C18.0847 6.96667 19.1247 7.39746 19.8915 8.16428C20.6583 8.93109 21.0891 9.97112 21.0891 11.0556C21.0891 12.14 20.6583 13.18 19.8915 13.9468C19.1247 14.7137 18.0847 15.1444 17.0002 15.1444C15.9158 15.1444 14.8758 14.7137 14.1089 13.9468Z" stroke="#16191E" stroke-width="1.6"/>
<path id="Ellipse 1" d="M24.3332 22.0556C24.3332 18.3055 21.0499 15.9444 16.9998 15.9444C12.9497 15.9444 9.6665 18.3055 9.6665 22.0556" stroke="#16191E" stroke-width="1.6"/>
</g>
</g>
</svg>
